<svg width="2956" height="1146" viewBox="0 0 2956 1146" fill="none" xmlns="http://www.w3.org/2000/svg">
<g clip-path="url(#clip0_124_9)">
<circle cx="500" cy="646" r="400" stroke="#C05C38" stroke-width="200"/>
<rect x="690" y="836" width="310" height="310" fill="#01CED1"/>
<path d="M1419.14 836C1410.41 773.726 1401.97 723.383 1393.82 684.971H1156.36C1148.21 723.383 1139.78 773.726 1131.05 836H1000.1C1022.21 624.734 1091.47 421.034 1207.87 224.9H1343.18C1459 419.87 1527.97 623.57 1550.09 836H1419.14ZM1372.87 588.941C1348.42 492.911 1315.83 404.738 1275.09 324.422C1234.35 404.738 1201.76 492.911 1177.31 588.941H1372.87ZM2049.58 719.891C2049.58 746.663 2050.45 767.615 2052.2 782.747C2054.52 797.879 2058.02 810.683 2062.67 821.159C2051.03 826.979 2037.06 831.635 2020.77 835.127C2004.47 838.619 1989.05 840.365 1974.5 840.365C1957.62 840.365 1945.11 836.291 1936.96 828.143C1928.81 819.995 1923.57 806.318 1921.25 787.112C1904.37 805.736 1883.71 819.995 1859.26 829.889C1835.4 839.783 1809.21 844.73 1780.69 844.73C1730.06 844.73 1691.36 831.053 1664.58 803.699C1637.81 775.763 1624.43 735.605 1624.43 683.225V355.85H1753.63V677.114C1753.63 707.96 1758.29 730.076 1767.6 743.462C1777.49 756.266 1794.08 762.668 1817.36 762.668C1858.68 762.668 1892.73 741.716 1919.5 699.812V355.85H2049.58V719.891ZM2437.96 751.319C2444.36 753.065 2449.31 756.848 2452.8 762.668C2456.29 768.488 2458.04 775.472 2458.04 783.62C2458.04 795.842 2454.26 805.736 2446.69 813.302C2437.38 822.614 2421.96 830.18 2400.42 836C2379.47 841.82 2356.19 844.73 2330.58 844.73C2290.42 844.73 2258.12 833.672 2233.68 811.556C2209.23 788.858 2197.01 758.885 2197.01 721.637V437.912H2123.68V355.85H2197.01V224.9H2326.22V355.85H2417.01V437.912H2326.22V710.288C2326.22 730.658 2329.42 745.208 2335.82 753.938C2342.8 762.086 2354.73 766.16 2371.61 766.16C2390.24 766.16 2412.35 761.213 2437.96 751.319ZM2810.1 347.12C2852 347.12 2885.17 359.924 2909.62 385.532C2934.06 411.14 2946.28 446.06 2946.28 490.292V836H2817.08V505.133C2817.08 481.853 2812.72 465.266 2803.99 455.372C2795.26 444.896 2781 439.658 2761.21 439.658C2722.21 439.658 2682.06 456.536 2640.73 490.292V836H2511.53V145.457H2640.73V414.341C2662.85 393.971 2689.04 377.675 2719.3 365.453C2750.15 353.231 2780.41 347.12 2810.1 347.12Z" fill="white"/>
<path d="M2429.38 1113.14V1146H2301.66V929H2349.4V1113.14H2429.38ZM2590.8 1081.83C2590.8 1098.78 2591.42 1110.97 2592.66 1118.41C2594.1 1125.85 2596.89 1132.26 2601.03 1137.63C2596.69 1140.73 2591.11 1143.31 2584.29 1145.38C2577.47 1147.24 2571.27 1148.17 2565.69 1148.17C2560.52 1148.17 2556.39 1146.31 2553.29 1142.59C2550.19 1138.87 2547.91 1132.98 2546.47 1124.92C2540.89 1133.6 2534.27 1139.8 2526.63 1143.52C2518.98 1147.24 2509.06 1149.1 2496.87 1149.1C2481.78 1149.1 2469.59 1145.07 2460.29 1137.01C2450.99 1128.74 2446.34 1118 2446.34 1104.77C2446.34 1086.17 2454.09 1072.32 2469.59 1063.23C2485.29 1053.93 2510.4 1048.35 2544.92 1046.49V1030.37C2544.92 1021.9 2542.64 1015.59 2538.1 1011.46C2533.76 1007.33 2527.04 1005.26 2517.95 1005.26C2511.33 1005.26 2504.72 1006.6 2498.11 1009.29C2491.7 1011.77 2483.74 1016.21 2474.24 1022.62C2473.2 1023.45 2471.76 1023.86 2469.9 1023.86C2466.18 1023.86 2462.15 1021.38 2457.81 1016.42C2453.67 1011.46 2449.95 1004.95 2446.65 996.89C2454.71 989.863 2465.97 984.077 2480.44 979.53C2495.11 974.777 2509.58 972.4 2523.84 972.4C2545.33 972.4 2561.86 977.463 2573.44 987.59C2585.01 997.51 2590.8 1011.77 2590.8 1030.37V1081.83ZM2512.99 1119.34C2519.19 1119.34 2524.87 1117.17 2530.04 1112.83C2535.41 1108.49 2540.37 1101.77 2544.92 1092.68V1069.74C2527.76 1070.36 2514.74 1073.25 2505.86 1078.42C2497.18 1083.38 2492.84 1090.51 2492.84 1099.81C2492.84 1105.8 2494.7 1110.56 2498.42 1114.07C2502.14 1117.58 2506.99 1119.34 2512.99 1119.34ZM2718.01 972.4C2731.85 972.4 2743.94 976.017 2754.28 983.25C2764.61 990.483 2772.57 1000.82 2778.15 1014.25C2783.93 1027.68 2786.83 1043.29 2786.83 1061.06C2786.83 1078.83 2783.93 1094.33 2778.15 1107.56C2772.57 1120.79 2764.51 1131.02 2753.97 1138.25C2743.63 1145.48 2731.54 1149.1 2717.7 1149.1C2709.02 1149.1 2700.75 1147.03 2692.9 1142.9C2685.04 1138.77 2678.74 1133.19 2673.99 1126.16C2672.54 1133.81 2670.37 1139.39 2667.48 1142.9C2664.79 1146.41 2661.07 1148.17 2656.32 1148.17C2650.53 1148.17 2644.33 1147.24 2637.72 1145.38C2631.31 1143.52 2625.21 1140.94 2619.43 1137.63C2623.56 1132.26 2626.25 1125.85 2627.49 1118.41C2628.93 1110.76 2629.66 1098.57 2629.66 1081.83V900.79H2675.54V989.45C2681.74 983.457 2688.14 979.117 2694.76 976.43C2701.58 973.743 2709.33 972.4 2718.01 972.4ZM2709.95 1119.34C2720.28 1119.34 2727.93 1114.69 2732.89 1105.39C2737.85 1095.88 2740.33 1081.11 2740.33 1061.06C2740.33 1021.38 2729.17 1001.54 2706.85 1001.54C2700.85 1001.54 2694.96 1003.09 2689.18 1006.19C2683.39 1009.08 2678.84 1012.91 2675.54 1017.66V1095.47C2684.01 1111.38 2695.48 1119.34 2709.95 1119.34ZM2875.29 1149.1C2855.03 1149.1 2839.02 1146 2827.24 1139.8C2815.66 1133.6 2809.88 1125.64 2809.88 1115.93C2809.88 1110.14 2811.84 1105.29 2815.77 1101.36C2819.9 1097.23 2825.79 1094.95 2833.44 1094.54C2837.78 1102.81 2843.36 1109.01 2850.18 1113.14C2857.2 1117.27 2865.99 1119.34 2876.53 1119.34C2894.71 1119.34 2903.81 1112.52 2903.81 1098.88C2903.81 1093.3 2901.22 1089.06 2896.06 1086.17C2890.89 1083.28 2882.42 1079.87 2870.64 1075.94C2858.65 1072.01 2848.73 1068.19 2840.88 1064.47C2833.23 1060.75 2826.62 1055.38 2821.04 1048.35C2815.46 1041.12 2812.67 1031.82 2812.67 1020.45C2812.67 1010.74 2815.66 1002.26 2821.66 995.03C2827.86 987.59 2835.92 982.01 2845.84 978.29C2855.96 974.363 2866.92 972.4 2878.7 972.4C2893.78 972.4 2907.01 975.293 2918.38 981.08C2929.74 986.867 2938.63 994.617 2945.04 1004.33C2942.35 1009.5 2938.63 1014.04 2933.88 1017.97C2929.33 1021.69 2925.2 1023.55 2921.48 1023.55C2919.41 1023.55 2917.65 1023.24 2916.21 1022.62C2914.76 1021.79 2913.31 1020.55 2911.87 1018.9C2902.57 1007.33 2891.92 1001.54 2879.94 1001.54C2872.08 1001.54 2865.99 1003.09 2861.65 1006.19C2857.51 1009.08 2855.45 1013.53 2855.45 1019.52C2855.45 1025.93 2858.24 1030.78 2863.82 1034.09C2869.6 1037.4 2878.59 1040.81 2890.79 1044.32C2902.36 1047.42 2911.87 1050.73 2919.31 1054.24C2926.95 1057.55 2933.36 1062.61 2938.53 1069.43C2943.9 1076.04 2946.59 1084.83 2946.59 1095.78C2946.59 1112.93 2940.39 1126.16 2927.99 1135.46C2915.79 1144.55 2898.23 1149.1 2875.29 1149.1Z" fill="white"/>
<path d="M668.847 753.195C695.238 711.625 705.367 661.781 697.293 613.207C689.22 564.634 663.512 520.746 625.092 489.949C586.673 459.152 538.243 443.609 489.077 446.299C439.91 448.988 393.464 469.72 358.633 504.524C323.802 539.328 303.034 585.758 300.307 634.922C297.58 684.086 313.085 732.528 343.852 770.972C374.62 809.415 418.488 835.157 467.055 843.268C515.622 851.379 565.474 841.289 607.064 814.93" stroke="#01CED1" stroke-width="50"/>
</g>
<defs>
<clipPath id="clip0_124_9">
<rect width="2956" height="1146" fill="white"/>
</clipPath>
</defs>
</svg>
