<svg width="477" height="132" viewBox="0 0 477 132" fill="none" xmlns="http://www.w3.org/2000/svg">
<g clip-path="url(#clip0_34_128)">
<path d="M74 14.826C83.665 14.826 91.5 22.661 91.5 32.326C91.5 34.1931 91.2069 35.9906 90.666 37.6766C90.1 38.8575 89.562 40.0544 89.0527 41.2664C86.2823 47.8601 84.3646 54.9003 83.4375 62.2488C83.3805 62.7004 83.3278 63.1534 83.2783 63.6072C83.1059 63.8885 82.8445 64.1077 82.5332 64.2264H65.666C65.3786 64.1167 65.1326 63.9219 64.9609 63.6707C64.9037 63.1766 64.8435 62.6836 64.7774 62.1922C63.8035 54.9536 61.8677 48.0193 59.1025 41.5233C58.5407 40.2032 57.9437 38.9017 57.3145 37.619C56.7855 35.9498 56.5 34.1717 56.5 32.326C56.5 22.661 64.335 14.826 74 14.826Z" fill="#FFF8F5" stroke="#FFF8F5"/>
<path d="M74 45.226C92.7716 45.2261 102.075 45.7296 106.688 46.9106C108.988 47.4991 110.001 48.2279 110.485 49.0336C110.986 49.8669 111 50.8881 111 52.3256C111 54.451 110.994 56.1906 110.445 57.6645C109.914 59.0911 108.853 60.314 106.608 61.3198C104.339 62.3364 100.887 63.1177 95.6299 63.6411C90.3805 64.1636 83.3682 64.4262 74 64.4262C64.6319 64.4262 57.6195 64.1636 52.3701 63.6411C47.1128 63.1177 43.6609 62.3364 41.3916 61.3198C39.1466 60.314 38.0855 59.0911 37.5547 57.6645C37.0064 56.1906 37 54.451 37 52.3256C37 50.8881 37.0139 49.8669 37.5147 49.0336C37.9989 48.2279 39.0125 47.4991 41.3115 46.9106C45.9247 45.7296 55.2284 45.226 74 45.226Z" fill="#FFF8F5" stroke="#FFF8F5"/>
</g>
<g clip-path="url(#clip1_34_128)">
<path d="M74 117.174C64.335 117.174 56.5 109.339 56.5 99.674C56.5 97.8069 56.7932 96.0094 57.334 94.3234C57.9 93.1425 58.438 91.9456 58.9473 90.7336C61.7177 84.1399 63.6354 77.0997 64.5625 69.7512C64.6195 69.2996 64.6722 68.8466 64.7217 68.3928C64.8941 68.1115 65.1555 67.8923 65.4668 67.7736H82.334C82.6214 67.8833 82.8674 68.0781 83.0391 68.3293C83.0963 68.8234 83.1566 69.3164 83.2227 69.8078C84.1965 77.0464 86.1323 83.9807 88.8975 90.4767C89.4593 91.7968 90.0563 93.0983 90.6855 94.381C91.2145 96.0502 91.5 97.8283 91.5 99.674C91.5 109.339 83.665 117.174 74 117.174Z" fill="#FFF8F5" stroke="#FFF8F5"/>
<path d="M74 86.774C55.2284 86.7739 45.9247 86.2704 41.3115 85.0894C39.0125 84.5009 37.9989 83.7721 37.5146 82.9664C37.0139 82.1331 37 81.1119 37 79.6744C37 77.549 37.0064 75.8094 37.5547 74.3355C38.0855 72.9089 39.1466 71.686 41.3916 70.6802C43.6609 69.6636 47.1128 68.8823 52.3701 68.3589C57.6195 67.8364 64.6318 67.5738 74 67.5738C83.3681 67.5738 90.3805 67.8364 95.6299 68.3589C100.887 68.8823 104.339 69.6636 106.608 70.6802C108.853 71.686 109.914 72.9089 110.445 74.3355C110.994 75.8094 111 77.549 111 79.6744C111 81.1119 110.986 82.1331 110.485 82.9664C110.001 83.7721 108.987 84.5009 106.688 85.0894C102.075 86.2704 92.7716 86.774 74 86.774Z" fill="#FFF8F5" stroke="#FFF8F5"/>
</g>
<path d="M180.288 96.832C181.568 98.24 184.16 100.928 188.064 104.896C186.528 107.52 183.84 108.832 180 108.832C178.016 108.832 176.352 108.512 175.008 107.872C173.664 107.296 172.448 106.368 171.36 105.088C170.464 104.128 169.44 102.688 168.288 100.768C166.752 100.896 165.536 100.96 164.64 100.96C155.488 100.96 148.352 97.92 143.232 91.84C138.176 85.696 135.648 77.088 135.648 66.016C135.648 55.2 138.176 46.816 143.232 40.864C148.352 34.848 155.488 31.84 164.64 31.84C173.792 31.84 180.896 34.848 185.952 40.864C191.072 46.816 193.632 55.2 193.632 66.016C193.632 73.376 192.48 79.68 190.176 84.928C187.872 90.176 184.576 94.144 180.288 96.832ZM150.816 66.016C150.816 73.76 151.712 79.584 153.504 83.488C155.36 87.392 158.272 89.632 162.24 90.208L158.304 82.816H169.824C170.912 84.736 171.904 86.336 172.8 87.616C176.576 84.096 178.464 76.896 178.464 66.016C178.464 57.696 177.376 51.68 175.2 47.968C173.024 44.256 169.504 42.4 164.64 42.4C159.776 42.4 156.256 44.256 154.08 47.968C151.904 51.68 150.816 57.696 150.816 66.016ZM244.77 100C243.81 93.152 242.882 87.616 241.986 83.392H215.874C214.978 87.616 214.05 93.152 213.09 100H198.69C201.122 76.768 208.738 54.368 221.538 32.8H236.418C249.154 54.24 256.738 76.64 259.17 100H244.77ZM239.682 72.832C236.994 62.272 233.41 52.576 228.93 43.744C224.45 52.576 220.866 62.272 218.178 72.832H239.682ZM314.097 87.232C314.097 90.176 314.193 92.48 314.385 94.144C314.641 95.808 315.025 97.216 315.537 98.368C314.257 99.008 312.721 99.52 310.929 99.904C309.137 100.288 307.441 100.48 305.841 100.48C303.985 100.48 302.609 100.032 301.713 99.136C300.817 98.24 300.241 96.736 299.985 94.624C298.129 96.672 295.857 98.24 293.169 99.328C290.545 100.416 287.665 100.96 284.529 100.96C278.961 100.96 274.705 99.456 271.761 96.448C268.817 93.376 267.345 88.96 267.345 83.2V47.2H281.553V82.528C281.553 85.92 282.065 88.352 283.089 89.824C284.177 91.232 286.001 91.936 288.561 91.936C293.105 91.936 296.849 89.632 299.793 85.024V47.2H314.097V87.232ZM356.806 90.688C357.51 90.88 358.054 91.296 358.438 91.936C358.822 92.576 359.014 93.344 359.014 94.24C359.014 95.584 358.598 96.672 357.766 97.504C356.742 98.528 355.046 99.36 352.678 100C350.374 100.64 347.814 100.96 344.998 100.96C340.582 100.96 337.03 99.744 334.342 97.312C331.654 94.816 330.31 91.52 330.31 87.424V56.224H322.246V47.2H330.31V32.8H344.518V47.2H354.502V56.224H344.518V86.176C344.518 88.416 344.87 90.016 345.574 90.976C346.342 91.872 347.654 92.32 349.51 92.32C351.558 92.32 353.99 91.776 356.806 90.688ZM397.728 46.24C402.336 46.24 405.984 47.648 408.672 50.464C411.36 53.28 412.704 57.12 412.704 61.984V100H398.496V63.616C398.496 61.056 398.016 59.232 397.056 58.144C396.096 56.992 394.528 56.416 392.352 56.416C388.064 56.416 383.648 58.272 379.104 61.984V100H364.896V24.064H379.104V53.632C381.536 51.392 384.416 49.6 387.744 48.256C391.136 46.912 394.464 46.24 397.728 46.24Z" fill="#FFF8F5"/>
<defs>
<clipPath id="clip0_34_128">
<rect width="75" height="50.5999" fill="white" transform="translate(36.5 14.326)"/>
</clipPath>
<clipPath id="clip1_34_128">
<rect width="116" height="50.5999" fill="white" transform="matrix(-1 0 0 -1 132 117.674)"/>
</clipPath>
</defs>
</svg>
