<svg width="148" height="132" viewBox="0 0 148 132" fill="none" xmlns="http://www.w3.org/2000/svg">
<g clip-path="url(#clip0_34_132)">
<g clip-path="url(#clip1_34_132)">
<path d="M74 14.826C83.665 14.826 91.5 22.661 91.5 32.326C91.5 34.1931 91.2068 35.9906 90.666 37.6766C90.1 38.8575 89.562 40.0544 89.0527 41.2664C86.2823 47.8601 84.3646 54.9003 83.4375 62.2488C83.3805 62.7004 83.3278 63.1534 83.2783 63.6072C83.1059 63.8885 82.8445 64.1077 82.5332 64.2264H65.666C65.3786 64.1167 65.1326 63.9219 64.9609 63.6707C64.9037 63.1766 64.8434 62.6836 64.7773 62.1922C63.8035 54.9536 61.8677 48.0193 59.1025 41.5233C58.5407 40.2032 57.9437 38.9017 57.3145 37.619C56.7855 35.9498 56.5 34.1717 56.5 32.326C56.5 22.661 64.335 14.826 74 14.826Z" fill="#140500" stroke="#140500"/>
<path d="M74 45.226C92.7716 45.2261 102.075 45.7297 106.688 46.9106C108.988 47.4992 110.001 48.2279 110.485 49.0337C110.986 49.867 111 50.8882 111 52.3257C111 54.451 110.994 56.1907 110.445 57.6645C109.914 59.0912 108.853 60.314 106.608 61.3198C104.339 62.3364 100.887 63.1177 95.6299 63.6411C90.3805 64.1637 83.3682 64.4262 74 64.4262C64.6319 64.4262 57.6195 64.1637 52.3701 63.6411C47.1128 63.1177 43.6609 62.3364 41.3916 61.3198C39.1466 60.314 38.0855 59.0912 37.5547 57.6645C37.0064 56.1907 37 54.451 37 52.3257C37 50.8882 37.0139 49.867 37.5146 49.0337C37.9989 48.2279 39.0125 47.4992 41.3115 46.9106C45.9247 45.7296 55.2284 45.226 74 45.226Z" fill="#140500" stroke="#140500"/>
</g>
<g clip-path="url(#clip2_34_132)">
<path d="M74 117.174C64.335 117.174 56.5 109.339 56.5 99.674C56.5 97.8069 56.7932 96.0094 57.334 94.3234C57.9 93.1425 58.438 91.9456 58.9473 90.7336C61.7177 84.1399 63.6354 77.0997 64.5625 69.7512C64.6195 69.2996 64.6722 68.8466 64.7217 68.3928C64.8941 68.1115 65.1555 67.8923 65.4668 67.7736H82.334C82.6214 67.8833 82.8674 68.0781 83.0391 68.3293C83.0963 68.8234 83.1566 69.3164 83.2227 69.8078C84.1965 77.0464 86.1323 83.9807 88.8975 90.4767C89.4593 91.7968 90.0563 93.0983 90.6855 94.381C91.2145 96.0502 91.5 97.8283 91.5 99.674C91.5 109.339 83.665 117.174 74 117.174Z" fill="#140500" stroke="#140500"/>
<path d="M74 86.774C55.2284 86.7739 45.9247 86.2704 41.3115 85.0894C39.0125 84.5009 37.9989 83.7721 37.5146 82.9664C37.0139 82.1331 37 81.1119 37 79.6744C37 77.549 37.0064 75.8094 37.5547 74.3355C38.0855 72.9089 39.1466 71.686 41.3916 70.6802C43.6609 69.6636 47.1128 68.8823 52.3701 68.3589C57.6195 67.8364 64.6318 67.5738 74 67.5738C83.3681 67.5738 90.3805 67.8364 95.6299 68.3589C100.887 68.8823 104.339 69.6636 106.608 70.6802C108.853 71.686 109.914 72.9089 110.445 74.3355C110.994 75.8094 111 77.549 111 79.6744C111 81.1119 110.986 82.1331 110.485 82.9664C110.001 83.7721 108.987 84.5009 106.688 85.0894C102.075 86.2704 92.7716 86.774 74 86.774Z" fill="#140500" stroke="#140500"/>
</g>
</g>
<defs>
<clipPath id="clip0_34_132">
<rect width="116" height="116" fill="white" transform="translate(16 8)"/>
</clipPath>
<clipPath id="clip1_34_132">
<rect width="75" height="50.5999" fill="white" transform="translate(36.5 14.326)"/>
</clipPath>
<clipPath id="clip2_34_132">
<rect width="116" height="50.5999" fill="white" transform="matrix(-1 0 0 -1 132 117.674)"/>
</clipPath>
</defs>
</svg>
